<svg xmlns="http://www.w3.org/2000/svg" xmlns:xlink="http://www.w3.org/1999/xlink" width="500" zoomAndPan="magnify" viewBox="0 0 375 374.999991" height="500" preserveAspectRatio="xMidYMid meet" version="1.0"><defs><g/><clipPath id="dfb2fe48dc"><path d="M 85 57 L 305 57 L 305 251 L 85 251 Z M 85 57 " clip-rule="nonzero"/></clipPath><clipPath id="a328dcc221"><path d="M 62.828125 61.390625 L 290.332031 37.523438 L 311.929688 243.390625 L 84.425781 267.261719 Z M 62.828125 61.390625 " clip-rule="nonzero"/></clipPath><clipPath id="9413d8008a"><path d="M 62.828125 61.390625 L 290.332031 37.523438 L 311.929688 243.390625 L 84.425781 267.261719 Z M 62.828125 61.390625 " clip-rule="nonzero"/></clipPath><clipPath id="ee7eed1b5d"><path d="M 62.828125 61.390625 L 290.332031 37.523438 L 311.929688 243.390625 L 84.425781 267.261719 Z M 62.828125 61.390625 " clip-rule="nonzero"/></clipPath></defs><rect x="-37.5" width="450" fill="#ffffff" y="-37.499999" height="449.999989" fill-opacity="1"/><rect x="-37.5" width="450" fill="#ffffff" y="-37.499999" height="449.999989" fill-opacity="1"/><rect x="-37.5" width="450" fill="#000000" y="-37.499999" height="449.999989" fill-opacity="1"/><g clip-path="url(#dfb2fe48dc)"><g clip-path="url(#a328dcc221)"><g clip-path="url(#9413d8008a)"><g clip-path="url(#ee7eed1b5d)"><path fill="#ffffff" d="M 286.738281 131.90625 C 274.628906 113.15625 258.140625 101.128906 240.3125 98.042969 C 205.3125 91.988281 185.238281 78.449219 170.578125 68.5625 C 155.863281 58.640625 146.984375 52.648438 134.9375 63.464844 C 118.070312 78.609375 119.859375 96.609375 121.757812 115.667969 C 123.664062 134.796875 125.632812 154.574219 109.742188 174.175781 C 97.464844 189.324219 89.707031 203.265625 86.683594 215.605469 C 84.011719 226.507812 85.246094 235.648438 90.257812 242.035156 C 98.566406 252.628906 115.839844 253.871094 134.265625 245.207031 C 154.109375 235.871094 168.003906 239.253906 185.589844 243.539062 C 201.203125 247.339844 220.160156 251.960938 249.027344 248.933594 C 253.03125 248.511719 257.226562 247.945312 261.625 247.207031 C 275.726562 244.847656 286.640625 238.117188 294.054688 227.203125 C 300.648438 217.503906 304.152344 204.726562 304.195312 190.253906 C 304.25 170.445312 297.886719 149.179688 286.738281 131.90625 Z M 303.308594 190.25 C 303.222656 221 287.582031 241.96875 261.476562 246.335938 C 225.523438 252.351562 203.496094 246.992188 185.800781 242.679688 C 174.390625 239.902344 164.523438 237.496094 153.585938 238.644531 C 147.5 239.28125 141.082031 241.019531 133.886719 244.40625 C 115.851562 252.890625 99 251.746094 90.953125 241.488281 C 80.289062 227.890625 87.570312 202.9375 110.429688 174.734375 C 126.546875 154.851562 124.5625 134.886719 122.640625 115.582031 C 120.765625 96.753906 118.996094 78.964844 135.527344 64.125 C 147.058594 53.769531 155.238281 59.285156 170.082031 69.296875 C 184.808594 79.226562 204.976562 92.828125 240.160156 98.917969 C 257.742188 101.957031 274.019531 113.84375 285.992188 132.386719 C 297.054688 149.519531 303.367188 170.609375 303.308594 190.25 Z M 237.582031 101.03125 C 204.464844 95.300781 185.464844 82.488281 171.59375 73.132812 C 157.660156 63.734375 149.25 58.0625 137.832031 68.3125 C 121.859375 82.652344 123.554688 99.695312 125.351562 117.738281 C 127.15625 135.835938 129.015625 154.550781 113.988281 173.09375 C 92.082031 200.121094 85.1875 224.140625 95.546875 237.34375 C 103.417969 247.378906 119.773438 248.558594 137.222656 240.351562 C 155.996094 231.523438 169.140625 234.722656 185.78125 238.777344 C 200.558594 242.375 218.503906 246.75 245.828125 243.882812 C 249.617188 243.484375 253.589844 242.949219 257.75 242.25 C 271.105469 240.015625 281.4375 233.640625 288.460938 223.304688 C 294.703125 214.125 298.019531 202.027344 298.058594 188.324219 C 298.113281 169.570312 292.089844 149.441406 281.535156 133.089844 C 270.070312 115.335938 254.460938 103.953125 237.582031 101.03125 Z M 297.175781 188.320312 C 297.09375 217.410156 282.300781 237.246094 257.605469 241.378906 C 223.578125 247.074219 202.738281 241.996094 185.992188 237.917969 C 175.191406 235.289062 165.847656 233.011719 155.496094 234.097656 C 149.734375 234.703125 143.660156 236.347656 136.84375 239.554688 C 119.785156 247.578125 103.847656 246.496094 96.242188 236.800781 C 86.15625 223.941406 93.046875 200.332031 114.671875 173.652344 C 129.933594 154.824219 128.050781 135.925781 126.234375 117.652344 C 124.460938 99.835938 122.785156 83.007812 138.421875 68.96875 C 149.324219 59.179688 157.058594 64.398438 171.097656 73.867188 C 185.035156 83.265625 204.125 96.140625 237.429688 101.902344 C 254.0625 104.78125 269.460938 116.027344 280.789062 133.570312 C 291.257812 149.78125 297.230469 169.734375 297.175781 188.320312 Z M 234.851562 104.019531 C 203.613281 98.613281 185.691406 86.527344 172.609375 77.703125 C 159.453125 68.832031 151.511719 63.476562 140.726562 73.15625 C 125.648438 86.691406 127.25 102.777344 128.945312 119.808594 C 130.644531 136.875 132.402344 154.523438 118.230469 172.011719 C 97.554688 197.515625 91.050781 220.1875 100.832031 232.65625 C 108.261719 242.132812 123.707031 243.25 140.179688 235.5 C 157.882812 227.171875 170.28125 230.191406 185.972656 234.015625 C 199.914062 237.410156 216.851562 241.535156 242.628906 238.832031 C 246.203125 238.457031 249.949219 237.949219 253.878906 237.292969 C 266.484375 235.183594 276.238281 229.167969 282.867188 219.410156 C 288.757812 210.742188 291.890625 199.328125 291.925781 186.394531 C 291.976562 168.699219 286.292969 149.703125 276.332031 134.273438 C 265.515625 117.519531 250.78125 106.773438 234.851562 104.019531 Z M 291.039062 186.390625 C 290.960938 214.230469 277.363281 232.464844 253.730469 236.417969 C 221.636719 241.792969 201.980469 237.003906 186.183594 233.15625 C 175.992188 230.671875 167.175781 228.523438 157.40625 229.550781 C 151.96875 230.121094 146.234375 231.675781 139.800781 234.699219 C 123.71875 242.265625 108.695312 241.246094 101.527344 232.109375 C 92.019531 219.988281 98.519531 197.730469 118.917969 172.566406 C 133.320312 154.796875 131.542969 136.964844 129.828125 119.71875 C 128.15625 102.917969 126.574219 87.050781 141.316406 73.816406 C 151.585938 64.59375 158.878906 69.511719 172.113281 78.4375 C 185.261719 87.304688 203.273438 99.453125 234.699219 104.890625 C 250.382812 107.601562 264.90625 118.210938 275.585938 134.753906 C 285.457031 150.042969 291.089844 168.863281 291.039062 186.390625 Z M 232.121094 107.007812 C 202.761719 101.925781 185.921875 90.566406 173.621094 82.273438 C 161.246094 73.925781 153.777344 68.886719 143.621094 78.003906 C 129.441406 90.734375 130.945312 105.859375 132.539062 121.875 C 134.136719 137.914062 135.789062 154.496094 122.472656 170.925781 C 103.03125 194.910156 96.917969 216.234375 106.117188 227.964844 C 113.113281 236.882812 127.644531 237.933594 143.136719 230.648438 C 159.769531 222.824219 171.417969 225.660156 186.164062 229.253906 C 199.273438 232.445312 215.195312 236.324219 239.429688 233.78125 C 242.789062 233.429688 246.308594 232.953125 250.003906 232.332031 C 261.859375 230.351562 271.035156 224.691406 277.269531 215.515625 C 282.8125 207.363281 285.757812 196.625 285.792969 184.464844 C 285.839844 167.824219 280.496094 149.964844 271.128906 135.457031 C 260.957031 119.703125 247.101562 109.597656 232.121094 107.007812 Z M 284.90625 184.460938 C 284.832031 210.617188 272.058594 227.746094 249.859375 231.460938 C 219.695312 236.511719 201.21875 232.011719 186.375 228.394531 C 176.792969 226.058594 168.503906 224.039062 159.316406 225.003906 C 154.203125 225.539062 148.808594 227.003906 142.761719 229.847656 C 127.652344 236.953125 113.542969 236 106.816406 227.417969 C 97.886719 216.035156 103.996094 195.125 123.160156 171.484375 C 136.703125 154.773438 135.035156 138.003906 133.421875 121.789062 C 131.851562 106.003906 130.367188 91.09375 144.214844 78.660156 C 153.851562 70.007812 160.699219 74.625 173.128906 83.007812 C 185.492188 91.347656 202.425781 102.765625 231.96875 107.878906 C 263.75 113.375 285 151.914062 284.90625 184.460938 Z M 229.390625 109.992188 C 201.910156 105.238281 186.148438 94.609375 174.636719 86.84375 C 163.039062 79.023438 156.039062 74.300781 146.515625 82.847656 C 133.230469 94.777344 134.640625 108.945312 136.132812 123.945312 C 137.628906 138.953125 139.171875 154.472656 126.714844 169.84375 C 108.507812 192.308594 102.78125 212.28125 111.40625 223.273438 C 117.960938 231.632812 131.578125 232.625 146.09375 225.792969 C 161.65625 218.472656 172.554688 221.128906 186.359375 224.492188 C 198.628906 227.480469 213.535156 231.113281 236.230469 228.730469 C 239.378906 228.398438 242.671875 227.953125 246.132812 227.375 C 257.238281 225.515625 265.835938 220.214844 271.675781 211.617188 C 276.867188 203.980469 279.625 193.925781 279.660156 182.53125 C 279.703125 166.953125 274.699219 150.226562 265.925781 136.640625 C 256.398438 121.886719 243.421875 112.421875 229.390625 109.992188 Z M 278.773438 182.53125 C 278.703125 207 266.753906 223.027344 245.988281 226.503906 C 217.757812 231.226562 200.460938 227.015625 186.566406 223.632812 C 177.59375 221.445312 169.832031 219.554688 161.226562 220.457031 C 156.4375 220.960938 151.382812 222.328125 145.71875 224.996094 C 131.589844 231.640625 118.394531 230.753906 112.101562 222.730469 C 103.75 212.085938 109.472656 192.523438 127.402344 170.398438 C 140.089844 154.746094 138.527344 139.042969 137.015625 123.855469 C 135.542969 109.085938 134.15625 95.136719 147.109375 83.507812 C 156.117188 75.421875 162.519531 79.738281 174.144531 87.578125 C 185.71875 95.386719 201.574219 106.078125 229.238281 110.867188 C 258.976562 116.011719 278.859375 152.074219 278.773438 182.53125 Z M 226.660156 112.980469 C 201.0625 108.550781 186.375 98.648438 175.652344 91.417969 C 164.832031 84.117188 158.300781 79.714844 149.414062 87.695312 C 137.019531 98.820312 138.335938 112.027344 139.726562 126.011719 C 141.117188 139.992188 142.558594 154.445312 130.957031 168.757812 C 113.980469 189.703125 108.648438 208.332031 116.691406 218.585938 C 122.808594 226.386719 135.511719 227.3125 149.050781 220.941406 C 163.542969 214.125 173.695312 216.597656 186.546875 219.730469 C 197.984375 222.515625 211.878906 225.898438 233.03125 223.679688 C 235.960938 223.371094 239.035156 222.957031 242.257812 222.417969 C 252.617188 220.683594 260.632812 215.738281 266.082031 207.722656 C 270.921875 200.601562 273.492188 191.226562 273.523438 180.605469 C 273.566406 166.082031 268.898438 150.488281 260.722656 137.824219 C 251.839844 124.066406 239.742188 115.246094 226.660156 112.980469 Z M 272.640625 180.601562 C 272.574219 203.386719 261.449219 218.308594 242.113281 221.546875 C 215.8125 225.945312 199.703125 222.023438 186.757812 218.871094 C 178.394531 216.832031 171.15625 215.070312 163.136719 215.910156 C 158.667969 216.378906 153.957031 217.65625 148.675781 220.140625 C 135.523438 226.328125 123.242188 225.503906 117.386719 218.039062 C 109.617188 208.132812 114.945312 189.917969 131.644531 169.316406 C 143.472656 154.722656 142.019531 140.082031 140.609375 125.925781 C 139.238281 112.171875 137.945312 99.179688 150.003906 88.355469 C 158.378906 80.835938 164.339844 84.851562 175.15625 92.148438 C 185.945312 99.425781 200.722656 109.394531 226.507812 113.851562 C 254.203125 118.644531 272.71875 152.234375 272.640625 180.601562 Z M 223.925781 115.96875 C 200.210938 111.867188 186.601562 102.6875 176.667969 95.988281 C 166.625 89.214844 160.566406 85.128906 152.308594 92.542969 C 140.8125 102.863281 142.03125 115.113281 143.320312 128.082031 C 144.609375 141.03125 145.941406 154.421875 135.199219 167.675781 C 119.457031 187.101562 114.511719 204.378906 121.976562 213.894531 C 127.65625 221.136719 139.445312 222 152.007812 216.089844 C 165.429688 209.777344 174.832031 212.066406 186.738281 214.96875 C 197.34375 217.550781 210.222656 220.6875 229.832031 218.628906 C 232.550781 218.34375 235.398438 217.960938 238.386719 217.460938 C 247.996094 215.851562 255.429688 211.265625 260.488281 203.824219 C 264.976562 197.21875 267.363281 188.523438 267.390625 178.671875 C 267.429688 165.207031 263.101562 150.75 255.519531 139.007812 C 247.285156 126.25 236.0625 118.066406 223.925781 115.96875 Z M 266.503906 178.671875 C 266.445312 199.769531 256.144531 213.589844 238.242188 216.585938 C 213.871094 220.664062 198.945312 217.027344 186.949219 214.109375 C 179.191406 212.21875 172.484375 210.582031 165.046875 211.363281 C 160.902344 211.796875 156.535156 212.984375 151.632812 215.289062 C 139.457031 221.015625 128.089844 220.253906 122.675781 213.351562 C 115.480469 204.179688 120.421875 187.3125 135.886719 168.234375 C 146.859375 154.695312 145.507812 141.121094 144.203125 127.992188 C 142.933594 115.253906 141.738281 103.222656 152.898438 93.199219 C 160.644531 86.246094 166.160156 89.96875 176.171875 96.71875 C 186.175781 103.464844 199.871094 112.707031 223.777344 116.839844 C 249.429688 121.277344 266.578125 152.394531 266.503906 178.671875 Z M 221.195312 118.957031 C 199.359375 115.179688 186.832031 106.726562 177.683594 100.558594 C 168.417969 94.3125 162.828125 90.539062 155.203125 97.386719 C 144.601562 106.90625 145.726562 118.195312 146.914062 130.148438 C 148.101562 142.070312 149.328125 154.394531 139.441406 166.59375 C 124.929688 184.496094 120.378906 200.425781 127.265625 209.207031 C 132.507812 215.890625 143.382812 216.683594 154.96875 211.234375 C 167.316406 205.425781 175.972656 207.535156 186.933594 210.203125 C 196.699219 212.582031 208.566406 215.472656 226.632812 213.578125 C 229.136719 213.316406 231.761719 212.960938 234.515625 212.5 C 243.375 211.019531 250.230469 206.789062 254.890625 199.929688 C 259.03125 193.839844 261.230469 185.824219 261.257812 176.742188 C 261.292969 164.335938 257.304688 151.011719 250.320312 140.191406 C 242.726562 128.433594 232.382812 120.890625 221.195312 118.957031 Z M 260.371094 176.742188 C 260.316406 196.15625 250.835938 208.871094 234.367188 211.628906 C 211.929688 215.382812 198.183594 212.035156 187.140625 209.34375 C 179.992188 207.605469 173.8125 206.097656 166.957031 206.816406 C 163.136719 207.21875 159.109375 208.308594 154.589844 210.433594 C 143.390625 215.703125 132.9375 215.003906 127.960938 208.660156 C 121.347656 200.226562 125.894531 184.710938 140.128906 167.148438 C 150.246094 154.671875 149 142.160156 147.796875 130.0625 C 146.628906 118.339844 145.527344 107.265625 155.796875 98.042969 C 162.910156 91.660156 167.980469 95.082031 177.1875 101.289062 C 186.402344 107.503906 199.023438 116.015625 221.046875 119.828125 C 244.65625 123.910156 260.441406 152.554688 260.371094 176.742188 Z M 218.464844 121.941406 C 198.507812 118.488281 187.058594 110.765625 178.695312 105.128906 C 170.214844 99.40625 165.09375 95.953125 158.101562 102.234375 C 148.390625 110.949219 149.421875 121.28125 150.507812 132.21875 C 151.59375 143.109375 152.714844 154.371094 143.683594 165.507812 C 130.40625 181.890625 126.242188 196.476562 132.550781 204.515625 C 137.355469 210.640625 147.3125 211.371094 157.925781 206.382812 C 169.203125 201.078125 177.109375 203.003906 187.125 205.441406 C 196.058594 207.621094 206.910156 210.261719 223.429688 208.527344 C 225.722656 208.289062 228.121094 207.964844 230.640625 207.542969 C 238.753906 206.183594 245.027344 202.3125 249.296875 196.03125 C 253.085938 190.460938 255.097656 183.121094 255.121094 174.8125 C 255.1875 152.355469 240.472656 125.75 218.464844 121.941406 Z M 254.238281 174.8125 C 254.1875 192.539062 245.53125 204.152344 230.496094 206.667969 C 209.988281 210.101562 197.425781 207.042969 187.332031 204.582031 C 180.792969 202.988281 175.136719 201.613281 168.863281 202.269531 C 165.371094 202.636719 161.683594 203.636719 157.546875 205.582031 C 147.328125 210.390625 137.785156 209.757812 133.246094 203.96875 C 127.210938 196.277344 131.371094 182.105469 144.375 166.066406 C 153.632812 154.644531 152.492188 143.199219 151.390625 132.128906 C 150.324219 121.421875 149.316406 111.304688 158.691406 102.890625 C 165.171875 97.074219 169.800781 100.195312 178.203125 105.859375 C 186.628906 111.542969 198.171875 119.328125 218.316406 122.8125 C 239.878906 126.546875 254.300781 152.710938 254.238281 174.8125 Z M 215.734375 124.929688 C 197.660156 121.804688 187.285156 114.808594 179.710938 109.699219 C 172.007812 104.503906 167.355469 101.367188 160.996094 107.078125 C 152.179688 114.992188 153.113281 124.363281 154.101562 134.289062 C 155.082031 144.148438 156.097656 154.34375 147.925781 164.425781 C 135.878906 179.289062 132.109375 192.523438 137.835938 199.828125 C 142.203125 205.390625 151.246094 206.058594 160.878906 201.53125 C 171.089844 196.726562 178.25 198.472656 187.316406 200.679688 C 195.414062 202.652344 205.25 205.050781 220.230469 203.476562 C 222.308594 203.261719 224.484375 202.964844 226.765625 202.582031 C 234.128906 201.351562 239.828125 197.835938 243.703125 192.136719 C 247.136719 187.078125 248.964844 180.421875 248.988281 172.882812 C 249.046875 152.511719 235.699219 128.382812 215.734375 124.929688 Z M 248.101562 172.882812 C 248.058594 188.925781 240.226562 199.433594 226.621094 201.710938 C 208.050781 204.820312 196.667969 202.046875 187.523438 199.820312 C 181.59375 198.375 176.464844 197.128906 170.773438 197.722656 C 167.605469 198.058594 164.257812 198.964844 160.503906 200.730469 C 151.257812 205.078125 142.636719 204.507812 138.535156 199.28125 C 133.078125 192.324219 136.847656 179.503906 148.617188 164.984375 C 157.015625 154.621094 155.984375 144.238281 154.984375 134.199219 C 154.019531 124.507812 153.105469 115.351562 161.585938 107.738281 C 167.433594 102.484375 171.621094 105.308594 179.214844 110.433594 C 186.855469 115.585938 197.320312 122.644531 215.582031 125.804688 C 235.105469 129.179688 248.160156 152.871094 248.101562 172.882812 Z M 213.003906 127.917969 C 196.808594 125.117188 187.515625 118.847656 180.726562 114.269531 C 173.800781 109.597656 169.621094 106.777344 163.890625 111.925781 C 155.972656 119.03125 156.808594 127.449219 157.695312 136.355469 C 158.574219 145.1875 159.484375 154.316406 152.171875 163.339844 C 141.355469 176.683594 137.972656 188.570312 143.125 195.136719 C 147.050781 200.144531 155.183594 200.746094 163.839844 196.675781 C 172.976562 192.378906 179.386719 193.941406 187.507812 195.917969 C 194.769531 197.6875 203.59375 199.835938 217.03125 198.425781 C 218.894531 198.230469 220.847656 197.96875 222.894531 197.625 C 235.351562 195.539062 242.8125 185.570312 242.855469 170.953125 C 242.90625 152.671875 230.925781 131.019531 213.003906 127.917969 Z M 241.96875 170.953125 C 241.925781 185.3125 234.921875 194.714844 222.75 196.753906 C 206.105469 199.539062 195.910156 197.054688 187.714844 195.058594 C 182.394531 193.761719 177.792969 192.640625 172.683594 193.175781 C 169.835938 193.476562 166.832031 194.289062 163.460938 195.875 C 155.191406 199.765625 147.484375 199.261719 143.820312 194.589844 C 138.941406 188.371094 142.320312 176.898438 152.859375 163.898438 C 160.402344 154.59375 159.472656 145.277344 158.578125 136.269531 C 157.714844 127.589844 156.898438 119.390625 164.480469 112.582031 C 169.695312 107.902344 173.4375 110.421875 180.230469 115.003906 C 187.085938 119.625 196.472656 125.953125 212.851562 128.789062 C 230.332031 131.8125 242.019531 153.03125 241.96875 170.953125 Z M 210.273438 130.90625 C 195.957031 128.429688 187.742188 122.886719 181.742188 118.839844 C 175.59375 114.695312 171.886719 112.191406 166.785156 116.769531 C 159.761719 123.074219 160.503906 130.53125 161.289062 138.425781 C 162.066406 146.226562 162.871094 154.292969 156.414062 162.257812 C 146.832031 174.082031 143.839844 184.617188 148.410156 190.445312 C 151.898438 194.894531 159.117188 195.4375 166.796875 191.824219 C 174.859375 188.03125 180.523438 189.410156 187.695312 191.15625 C 194.128906 192.722656 201.9375 194.625 213.832031 193.378906 C 215.480469 193.203125 217.210938 192.96875 219.023438 192.667969 C 230.066406 190.820312 236.683594 181.980469 236.71875 169.023438 C 236.765625 152.832031 226.148438 133.652344 210.273438 130.90625 Z M 235.835938 169.023438 C 235.796875 181.695312 229.617188 189.996094 218.875 191.792969 C 204.167969 194.257812 195.152344 192.0625 187.90625 190.296875 C 183.195312 189.148438 179.117188 188.15625 174.59375 188.628906 C 172.070312 188.894531 169.410156 189.617188 166.417969 191.023438 C 159.128906 194.453125 152.332031 194.011719 149.105469 189.902344 C 144.808594 184.421875 147.796875 174.292969 157.101562 162.816406 C 163.785156 154.566406 162.964844 146.316406 162.171875 138.335938 C 161.410156 130.671875 160.6875 123.433594 167.378906 117.425781 C 171.960938 113.3125 175.261719 115.535156 181.246094 119.574219 C 187.3125 123.664062 195.621094 129.265625 210.121094 131.777344 C 225.558594 134.449219 235.878906 153.191406 235.835938 169.023438 Z M 207.542969 133.894531 C 195.105469 131.742188 187.96875 126.925781 182.753906 123.410156 C 177.574219 119.914062 174.148438 117.605469 169.679688 121.617188 C 163.550781 127.117188 164.199219 133.613281 164.882812 140.492188 C 165.558594 147.265625 166.253906 154.265625 160.65625 161.175781 C 152.304688 171.476562 149.703125 180.667969 153.695312 185.757812 C 156.75 189.648438 163.050781 190.125 169.753906 186.972656 C 176.75 183.679688 181.664062 184.878906 187.890625 186.394531 C 193.484375 187.757812 200.28125 189.414062 210.632812 188.328125 C 212.066406 188.175781 213.570312 187.972656 215.148438 187.707031 C 224.78125 186.097656 230.554688 178.390625 230.585938 167.09375 C 230.625 152.992188 221.375 136.285156 207.542969 133.894531 Z M 229.699219 167.089844 C 229.667969 178.082031 224.3125 185.277344 215.003906 186.835938 C 202.226562 188.976562 194.390625 187.066406 188.097656 185.535156 C 183.996094 184.535156 180.445312 183.671875 176.503906 184.082031 C 174.304688 184.316406 171.984375 184.945312 169.375 186.171875 C 163.0625 189.140625 157.179688 188.765625 154.394531 185.210938 C 150.671875 180.46875 153.273438 171.691406 161.34375 161.730469 C 167.171875 154.542969 166.457031 147.355469 165.765625 140.40625 C 165.101562 133.757812 164.476562 127.476562 170.273438 122.273438 C 174.226562 118.726562 177.082031 120.652344 182.261719 124.144531 C 187.539062 127.707031 194.769531 132.582031 207.390625 134.765625 C 220.785156 137.082031 229.738281 153.351562 229.699219 167.089844 Z M 204.8125 136.878906 C 194.257812 135.054688 188.195312 130.964844 183.769531 127.980469 C 179.339844 124.992188 176.414062 123.019531 172.578125 126.460938 C 167.34375 131.160156 167.894531 136.699219 168.476562 142.5625 C 169.050781 148.304688 169.640625 154.242188 164.898438 160.09375 C 157.78125 168.871094 155.570312 176.714844 158.984375 181.066406 C 161.59375 184.398438 166.984375 184.8125 172.710938 182.117188 C 178.632812 179.328125 182.804688 180.347656 188.082031 181.632812 C 192.839844 182.792969 198.625 184.199219 207.429688 183.277344 C 208.652344 183.148438 209.933594 182.976562 211.277344 182.75 C 219.5 181.375 224.421875 174.800781 224.449219 165.164062 C 224.484375 153.152344 216.601562 138.917969 204.8125 136.878906 Z M 223.566406 165.160156 C 223.539062 174.464844 219.007812 180.558594 211.128906 181.878906 C 200.285156 183.695312 193.632812 182.074219 188.289062 180.773438 C 184.796875 179.921875 181.773438 179.183594 178.414062 179.539062 C 176.539062 179.734375 174.558594 180.269531 172.332031 181.316406 C 166.996094 183.828125 162.03125 183.515625 159.679688 180.519531 C 156.539062 176.515625 158.746094 169.085938 165.585938 160.648438 C 170.558594 154.515625 169.921875 148.117188 169.359375 142.472656 C 168.796875 136.839844 168.269531 131.519531 173.167969 127.121094 C 176.488281 124.136719 178.757812 125.667969 183.277344 128.714844 C 187.769531 131.746094 193.917969 135.894531 204.660156 137.75 C 216.011719 139.714844 223.601562 153.507812 223.566406 165.160156 Z M 223.566406 165.160156 " fill-opacity="1" fill-rule="nonzero"/></g></g></g></g><g fill="#ffffff" fill-opacity="1"><g transform="translate(113.26254, 283.441959)"><g><path d="M 11.238281 0.519531 C 16.359375 0.519531 19.679688 -1.839844 19.679688 -5.441406 C 19.679688 -8.679688 16.957031 -10.878906 11.71875 -11.917969 C 7.398438 -12.757812 5.917969 -13.597656 5.917969 -15.359375 C 5.917969 -17.199219 7.679688 -18.320312 10.679688 -18.320312 C 13.839844 -18.320312 15.71875 -17.078125 15.960938 -14.800781 L 19.277344 -14.800781 C 19 -18.878906 15.757812 -21.277344 10.640625 -21.277344 C 5.640625 -21.277344 2.601562 -19.078125 2.601562 -15.359375 C 2.601562 -12.078125 5.121094 -10.078125 10.480469 -9.199219 C 14.519531 -8.519531 16.359375 -7.398438 16.359375 -5.519531 C 16.359375 -3.640625 14.4375 -2.480469 11.277344 -2.480469 C 7.71875 -2.480469 5.601562 -4 5.480469 -6.519531 L 2.160156 -6.519531 C 2.238281 -2.28125 5.800781 0.519531 11.238281 0.519531 Z M 11.238281 0.519531 "/></g></g></g><g fill="#ffffff" fill-opacity="1"><g transform="translate(135.100372, 283.441959)"><g><path d="M 10.519531 0.320312 C 13.878906 0.320312 16.519531 -0.761719 18.398438 -2.878906 L 18.757812 0 L 21.519531 0 L 21.519531 -13.199219 C 21.519531 -18 17.878906 -21.277344 12.4375 -21.277344 C 7.917969 -21.277344 4.519531 -18.839844 3.601562 -14.839844 L 7 -14.839844 C 7.679688 -16.878906 9.800781 -18.160156 12.480469 -18.160156 C 16 -18.160156 18.160156 -16.199219 18.160156 -12.960938 L 18.160156 -12.199219 L 9.679688 -12.199219 C 5.359375 -12.199219 2.519531 -9.757812 2.519531 -6 C 2.519531 -2.078125 5.519531 0.320312 10.519531 0.320312 Z M 5.878906 -6.039062 C 5.878906 -8 7.480469 -9.238281 9.800781 -9.238281 L 18.199219 -9.238281 C 18.078125 -5.398438 14.960938 -2.679688 10.640625 -2.679688 C 7.71875 -2.679688 5.878906 -4 5.878906 -6.039062 Z M 5.878906 -6.039062 "/></g></g></g><g fill="#ffffff" fill-opacity="1"><g transform="translate(159.897909, 283.441959)"><g><path d="M 9.71875 0 L 12.960938 0 L 22.078125 -20.757812 L 18.4375 -20.757812 L 15.558594 -14.199219 L 11.359375 -4.480469 L 7.121094 -14.199219 L 4.28125 -20.757812 L 0.640625 -20.757812 Z M 9.71875 0 "/></g></g></g><g fill="#ffffff" fill-opacity="1"><g transform="translate(182.615654, 283.441959)"><g><path d="M 10.519531 0.320312 C 13.878906 0.320312 16.519531 -0.761719 18.398438 -2.878906 L 18.757812 0 L 21.519531 0 L 21.519531 -13.199219 C 21.519531 -18 17.878906 -21.277344 12.4375 -21.277344 C 7.917969 -21.277344 4.519531 -18.839844 3.601562 -14.839844 L 7 -14.839844 C 7.679688 -16.878906 9.800781 -18.160156 12.480469 -18.160156 C 16 -18.160156 18.160156 -16.199219 18.160156 -12.960938 L 18.160156 -12.199219 L 9.679688 -12.199219 C 5.359375 -12.199219 2.519531 -9.757812 2.519531 -6 C 2.519531 -2.078125 5.519531 0.320312 10.519531 0.320312 Z M 5.878906 -6.039062 C 5.878906 -8 7.480469 -9.238281 9.800781 -9.238281 L 18.199219 -9.238281 C 18.078125 -5.398438 14.960938 -2.679688 10.640625 -2.679688 C 7.71875 -2.679688 5.878906 -4 5.878906 -6.039062 Z M 5.878906 -6.039062 "/></g></g></g><g fill="#ffffff" fill-opacity="1"><g transform="translate(207.413191, 283.441959)"><g><path d="M 3.71875 0 L 7.078125 0 L 7.078125 -10.480469 C 7.078125 -15.039062 9.839844 -18.078125 13.71875 -18.078125 C 17.359375 -18.078125 19.597656 -15.4375 19.597656 -11.238281 L 19.597656 0 L 22.957031 0 L 22.957031 -11.558594 C 22.957031 -17.480469 19.679688 -21.277344 14.160156 -21.277344 C 11.359375 -21.277344 8.640625 -20.199219 6.839844 -17.71875 L 6.480469 -20.757812 L 3.71875 -20.757812 Z M 3.71875 0 "/></g></g></g><g fill="#ffffff" fill-opacity="1"><g transform="translate(233.690575, 283.441959)"><g><path d="M 12.679688 0 L 15.800781 0 L 15.800781 -3.238281 L 12.839844 -3.238281 C 10.078125 -3.238281 8.800781 -4.640625 8.800781 -7.640625 L 8.800781 -17.679688 L 15.519531 -17.679688 L 15.519531 -20.757812 L 8.800781 -20.757812 L 8.800781 -25.917969 L 6.199219 -25.917969 L 5.878906 -23.117188 C 5.640625 -21.238281 5.078125 -20.757812 3.160156 -20.757812 L 1.078125 -20.757812 L 1.078125 -17.679688 L 5.441406 -17.679688 L 5.441406 -7.480469 C 5.441406 -2.71875 8.078125 0 12.679688 0 Z M 12.679688 0 "/></g></g></g><g fill="#ffffff" fill-opacity="1"><g transform="translate(251.448806, 283.441959)"><g><path d="M 5.121094 0.320312 C 6.757812 0.320312 7.839844 -0.800781 7.839844 -2.320312 C 7.839844 -3.839844 6.757812 -4.917969 5.121094 -4.917969 C 3.519531 -4.917969 2.441406 -3.839844 2.441406 -2.320312 C 2.441406 -0.800781 3.519531 0.320312 5.121094 0.320312 Z M 5.121094 0.320312 "/></g></g></g><g fill="#ffffff" fill-opacity="1"><g transform="translate(140.366832, 314.632626)"><g><path d="M 1.394531 0 L 2.65625 0 L 2.65625 -3.613281 C 2.65625 -5.835938 3.765625 -6.613281 5.175781 -6.613281 L 5.941406 -6.613281 L 5.941406 -7.785156 L 5.234375 -7.785156 C 3.914062 -7.785156 3.136719 -7.363281 2.578125 -6.433594 L 2.429688 -7.785156 L 1.394531 -7.785156 Z M 1.394531 0 "/></g></g></g><g fill="#ffffff" fill-opacity="1"><g transform="translate(146.906821, 314.632626)"><g><path d="M 4.769531 0.195312 C 6.523438 0.195312 7.964844 -0.75 8.59375 -2.265625 L 7.171875 -2.265625 C 6.691406 -1.441406 5.804688 -0.988281 4.785156 -0.988281 C 3.300781 -0.988281 2.25 -1.921875 2.054688 -3.390625 L 8.789062 -3.390625 C 8.878906 -6.105469 7.273438 -7.980469 4.785156 -7.980469 C 2.429688 -7.980469 0.78125 -6.300781 0.78125 -3.898438 C 0.78125 -1.484375 2.414062 0.195312 4.769531 0.195312 Z M 2.070312 -4.5 C 2.296875 -5.878906 3.34375 -6.796875 4.785156 -6.796875 C 6.210938 -6.796875 7.261719 -5.925781 7.53125 -4.5 Z M 2.070312 -4.5 "/></g></g></g><g fill="#ffffff" fill-opacity="1"><g transform="translate(156.44681, 314.632626)"><g><path d="M 4.785156 0.195312 C 6.734375 0.195312 8.25 -0.976562 8.773438 -2.863281 L 7.441406 -2.863281 C 7.050781 -1.738281 6.046875 -1.019531 4.785156 -1.019531 C 3.179688 -1.019531 2.039062 -2.203125 2.039062 -3.898438 C 2.039062 -5.578125 3.179688 -6.78125 4.785156 -6.78125 C 5.96875 -6.78125 6.945312 -6.136719 7.410156 -5.054688 L 8.683594 -5.054688 C 8.296875 -6.808594 6.71875 -7.980469 4.785156 -7.980469 C 2.445312 -7.980469 0.78125 -6.269531 0.78125 -3.898438 C 0.78125 -1.515625 2.445312 0.195312 4.785156 0.195312 Z M 4.785156 0.195312 "/></g></g></g><g fill="#ffffff" fill-opacity="1"><g transform="translate(165.956804, 314.632626)"><g><path d="M 4.90625 0.195312 C 7.320312 0.195312 9.03125 -1.515625 9.03125 -3.898438 C 9.03125 -6.285156 7.320312 -7.980469 4.90625 -7.980469 C 2.488281 -7.980469 0.78125 -6.285156 0.78125 -3.898438 C 0.78125 -1.515625 2.488281 0.195312 4.90625 0.195312 Z M 2.039062 -3.898438 C 2.039062 -5.59375 3.226562 -6.78125 4.90625 -6.78125 C 6.585938 -6.78125 7.769531 -5.59375 7.769531 -3.898438 C 7.769531 -2.191406 6.585938 -1.019531 4.90625 -1.019531 C 3.226562 -1.019531 2.039062 -2.191406 2.039062 -3.898438 Z M 2.039062 -3.898438 "/></g></g></g><g fill="#ffffff" fill-opacity="1"><g transform="translate(175.766793, 314.632626)"><g><path d="M 1.394531 0 L 2.65625 0 L 2.65625 -3.613281 C 2.65625 -5.835938 3.765625 -6.613281 5.175781 -6.613281 L 5.941406 -6.613281 L 5.941406 -7.785156 L 5.234375 -7.785156 C 3.914062 -7.785156 3.136719 -7.363281 2.578125 -6.433594 L 2.429688 -7.785156 L 1.394531 -7.785156 Z M 1.394531 0 "/></g></g></g><g fill="#ffffff" fill-opacity="1"><g transform="translate(182.306782, 314.632626)"><g><path d="M 4.753906 0.195312 C 6.015625 0.195312 7.09375 -0.328125 7.800781 -1.199219 L 7.949219 0 L 8.984375 0 L 8.984375 -11.101562 L 7.726562 -11.101562 L 7.726562 -6.691406 C 7.019531 -7.5 5.96875 -7.980469 4.753906 -7.980469 C 2.445312 -7.980469 0.78125 -6.253906 0.78125 -3.898438 C 0.78125 -1.53125 2.445312 0.195312 4.753906 0.195312 Z M 2.039062 -3.898438 C 2.039062 -5.578125 3.226562 -6.78125 4.90625 -6.78125 C 6.601562 -6.78125 7.769531 -5.578125 7.769531 -3.898438 C 7.769531 -2.203125 6.601562 -1.019531 4.90625 -1.019531 C 3.226562 -1.019531 2.039062 -2.203125 2.039062 -3.898438 Z M 2.039062 -3.898438 "/></g></g></g><g fill="#ffffff" fill-opacity="1"><g transform="translate(192.686767, 314.632626)"><g/></g></g><g fill="#ffffff" fill-opacity="1"><g transform="translate(196.406761, 314.632626)"><g><path d="M 4.214844 0.195312 C 6.136719 0.195312 7.378906 -0.691406 7.378906 -2.039062 C 7.378906 -3.253906 6.359375 -4.078125 4.394531 -4.46875 C 2.773438 -4.785156 2.21875 -5.101562 2.21875 -5.761719 C 2.21875 -6.449219 2.878906 -6.871094 4.003906 -6.871094 C 5.191406 -6.871094 5.894531 -6.40625 5.984375 -5.550781 L 7.230469 -5.550781 C 7.125 -7.078125 5.910156 -7.980469 3.988281 -7.980469 C 2.113281 -7.980469 0.976562 -7.15625 0.976562 -5.761719 C 0.976562 -4.53125 1.921875 -3.78125 3.929688 -3.449219 C 5.445312 -3.195312 6.136719 -2.773438 6.136719 -2.070312 C 6.136719 -1.363281 5.414062 -0.929688 4.230469 -0.929688 C 2.894531 -0.929688 2.101562 -1.5 2.054688 -2.445312 L 0.808594 -2.445312 C 0.839844 -0.855469 2.175781 0.195312 4.214844 0.195312 Z M 4.214844 0.195312 "/></g></g></g><g fill="#ffffff" fill-opacity="1"><g transform="translate(204.596747, 314.632626)"><g><path d="M 1.394531 0 L 2.65625 0 L 2.65625 -3.976562 C 2.65625 -5.683594 3.691406 -6.78125 5.160156 -6.78125 C 6.511719 -6.78125 7.351562 -5.820312 7.351562 -4.261719 L 7.351562 0 L 8.609375 0 L 8.609375 -4.378906 C 8.609375 -6.601562 7.378906 -7.980469 5.324219 -7.980469 C 4.320312 -7.980469 3.328125 -7.605469 2.65625 -6.765625 L 2.65625 -11.101562 L 1.394531 -11.101562 Z M 1.394531 0 "/></g></g></g><g fill="#ffffff" fill-opacity="1"><g transform="translate(214.451735, 314.632626)"><g><path d="M 4.90625 0.195312 C 7.320312 0.195312 9.03125 -1.515625 9.03125 -3.898438 C 9.03125 -6.285156 7.320312 -7.980469 4.90625 -7.980469 C 2.488281 -7.980469 0.78125 -6.285156 0.78125 -3.898438 C 0.78125 -1.515625 2.488281 0.195312 4.90625 0.195312 Z M 2.039062 -3.898438 C 2.039062 -5.59375 3.226562 -6.78125 4.90625 -6.78125 C 6.585938 -6.78125 7.769531 -5.59375 7.769531 -3.898438 C 7.769531 -2.191406 6.585938 -1.019531 4.90625 -1.019531 C 3.226562 -1.019531 2.039062 -2.191406 2.039062 -3.898438 Z M 2.039062 -3.898438 "/></g></g></g><g fill="#ffffff" fill-opacity="1"><g transform="translate(224.261724, 314.632626)"><g><path d="M 5.640625 0.195312 C 7.933594 0.195312 9.601562 -1.53125 9.601562 -3.898438 C 9.601562 -6.253906 7.933594 -7.980469 5.640625 -7.980469 C 4.363281 -7.980469 3.285156 -7.453125 2.578125 -6.585938 L 2.429688 -7.785156 L 1.394531 -7.785156 L 1.394531 3 L 2.65625 3 L 2.65625 -1.109375 C 3.359375 -0.300781 4.410156 0.195312 5.640625 0.195312 Z M 2.609375 -3.898438 C 2.609375 -5.578125 3.796875 -6.78125 5.476562 -6.78125 C 7.171875 -6.78125 8.339844 -5.578125 8.339844 -3.898438 C 8.339844 -2.203125 7.171875 -1.019531 5.476562 -1.019531 C 3.796875 -1.019531 2.609375 -2.203125 2.609375 -3.898438 Z M 2.609375 -3.898438 "/></g></g></g></svg>